<svg enable-background="new 0 0 328.967 479.548" height="381.226092" viewBox="0 0 150 218.27518" width="262.311531" xmlns="http://www.w3.org/2000/svg" xmlns:xlink="http://www.w3.org/1999/xlink"><linearGradient id="a"><stop offset="0" stop-color="#4fedf9"/><stop offset="1" stop-color="#124596"/></linearGradient><linearGradient id="b" gradientUnits="userSpaceOnUse" x1="132.1828407776" x2="23.45462668218" xlink:href="#a" y1="131.86008221545" y2="23.13185815543"/><linearGradient id="c" gradientUnits="userSpaceOnUse" x1="57.30906400953" x2="123.28537289149" y1="36.43169200916" y2="102.40794789759"><stop offset="0" stop-color="#52dbd3"/><stop offset=".5211" stop-color="#38acf9"/><stop offset="1" stop-color="#124596"/></linearGradient><linearGradient id="d" gradientUnits="userSpaceOnUse" x1="50.030244841" x2="111.44484845534" xlink:href="#a" y1="123.42504850956" y2="62.01044489522"/><linearGradient id="e" gradientUnits="userSpaceOnUse" x1="96.79458015441" x2="40.73835067863" xlink:href="#a" y1="121.04822550809" y2="64.99203272013"/><path d="m75.158914.5c-41.054582 0-74.33632725 33.2813-74.33632725 74.33678 0 41.05549 33.28174525 74.33678 74.33632725 74.33678 41.055486 0 74.336786-33.28129 74.336786-74.33678 0-41.05548-33.28084-74.33678-74.336786-74.33678zm1.102446 140.21679c-34.821275 0-63.049159-28.22833-63.049159-63.04961 0-34.82127 28.227884-63.04961 63.049159-63.04961 34.82083 0 63.04916 28.22834 63.04916 63.04961 0 34.82128-28.22833 63.04961-63.04916 63.04961z" fill="url(#b)"/><path d="m88.597981 8.73484c-32.576524 0-58.985416 26.40934-58.985416 58.98632s26.408892 58.98587 58.985416 58.98587c32.577429 0 58.985869-26.40889 58.985869-58.98587s-26.40798-58.98632-58.985869-58.98632zm2.929138 108.16657c-28.601557 0-51.787356-23.1858-51.787356-51.7878 0-28.60201 23.185347-51.78827 51.787356-51.78827 28.602011 0 51.787811 23.18626 51.787811 51.78827 0 28.602-23.18625 51.7878-51.787811 51.7878z" fill="url(#c)"/><path d="m82.089289 35.13105c-31.057376 0-56.233829 25.1769-56.233829 56.23383 0 31.05737 25.176453 56.23428 56.233829 56.23428 31.056931 0 56.234281-25.17691 56.234281-56.23428 0-31.05693-25.17735-56.23383-56.234281-56.23383zm-3.259328 102.3468c-26.985028 0-48.86003-21.87591-48.86003-48.86048 0-26.98413 21.875002-48.86003 48.86003-48.86003 26.985479 0 48.860489 21.8759 48.860489 48.86003 0 26.98457-21.87501 48.86048-48.860489 48.86048z" fill="url(#d)"/><path d="m59.893155 27.95744c-31.032917 0-56.1894417 25.15743-56.1894417 56.18945 0 31.03246 25.1569777 56.18989 56.1894417 56.18989 31.033371 0 56.189895-25.15743 56.189895-56.18989.00046-31.03202-25.156524-56.18945-56.189895-56.18945zm4.167012 95.17638c-23.89872 0-43.272157-19.37389-43.272157-43.27261 0-23.89873 19.373437-43.27261 43.272157-43.27261 23.899627 0 43.272613 19.37388 43.272613 43.27261 0 23.89872-19.372986 43.27261-43.272613 43.27261z" fill="url(#e)"/><path d="m21.734647 199.52194c0 4.29927 2.251545 6.34111 6.644573 6.34111 1.948078 0 4.046984-.65314 4.046984-.65314.674422-.2097 1.486536.13453 1.804497.76456l3.519767 6.96752c.318414.63048.143127 1.52549-.389072 1.98975 0 0-3.184141 2.77332-12.015037 2.77332-9.852719 0-17.0833908-5.22144-17.0833908-14.39295 0-9.22132 0-39.3923 0-39.3923 0-.70613.5774935-1.28363 1.2836209-1.28363h10.9039839c.706127 0 1.283621.5775 1.283621 1.28363.000453-.00046.000453 26.38035.000453 35.60213z" stroke="#231815" stroke-miterlimit="10" stroke-width=".113234"/><path d="m148.09069 204.64465s-18.41321 0-18.41367 0c0 .00045 15.07689-16.29256 16.10596-17.27951 1.47521-1.41497 2.72124-3.49395 2.72124-6.03991 0-4.29383-3.01746-7.77555-7.94812-7.77555-7.19399 0-18.23023 0-29.61704 0v5.80709c-3.70049-4.77621-10.51492-7.29544-18.3335-7.29544-12.031342 0-21.284827 7.84304-21.284827 16.2518v27.02715c0 .70658.577494 1.28408 1.283621 1.28408h10.512647c.706128 0 1.283621-.5775 1.283621-1.28408 0 0 0-17.49103 0-23.45167 0-3.45092 1.944908-7.40369 8.219432-7.40369 6.269994 0 8.189536 4.24356 8.189536 8.63522v22.22014c0 .70658.5775 1.28408 1.28408 1.28408l40.97577-.008c.70658.005 1.535-.51272 1.84118-1.14864l4.47094-9.27432c.30754-.63547.063-1.54859-1.29087-1.54859zm-17.58932-18.9907c.70658 0 .88186.41534.39043.92217l-17.00096 17.55082c0-5.85193 0-12.47204 0-15.81335 0-.92445-.0774-1.80994-.21831-2.65964z"/><path d="m70.638611 173.55013c-3.925597 0-6.7877 1.21115-8.261554 4.53163-3.644324 8.20947-10.515365 22.76774-10.515365 22.76774-.301655.63864-.75595.62188-1.0105-.0367 0 0-4.956933-12.83666-8.940506-22.73105-1.356544-3.36985-4.336411-4.53163-8.261555-4.53163-2.807298 0-7.240636 0-11.914484 0 0-5.5308 0-9.63032 0-9.63032 0-.70613-.577494-1.28363-1.283621-1.28363h-10.9039839c-.7061274 0-1.283621.5775-1.283621 1.28363v9.63032c-3.7765812 0-6.3773404 0-6.3773404 0-1.3714905 0-1.5621766 1.2338-1.26595639 1.87516l4.18286499 9.06325c.2957673.64136 1.1155816 1.16586 1.821709 1.16586h1.6387228v17.65771c0 9.17151 7.2306719 14.39295 17.0833909 14.39295 8.830896 0 12.015036-2.77332 12.015036-2.77332.5322-.46381.707487-1.35927.389073-1.98975l-3.519767-6.96752c-.318414-.63049-1.130528-.97426-1.804497-.76456 0 0-2.098906.65314-4.046985.65314-4.393027 0-6.644572-2.04184-6.644572-6.34111 0-3.1787 0-8.39517 0-13.86799h7.393729c.706127 0 1.525942.52495 1.821709 1.16585l13.635188 28.63915c.295768.64136 1.115582 1.16586 1.821709 1.16586h9.661581c.706127 0 1.527753-.52359 1.825785-1.16359l13.805946-28.64322c.298032-.64 1.119658-1.16404 1.825785-1.16404h1.409537v-12.10427c-1.628758.00045-3.07453.00045-4.297458.00045z"/></svg>