<?xml version="1.0" encoding="UTF-8"?>
<svg id="Layer_1" data-name="Layer 1" xmlns="http://www.w3.org/2000/svg" version="1.1" viewBox="0 0 262.3 381.2">
  <defs>
    <style>
      .cls-1 {
        fill: none;
      }

      .cls-1, .cls-2 {
        stroke-width: 0px;
      }

      .cls-2 {
        fill: #0474bc;
        fill-rule: evenodd;
      }
    </style>
  </defs>
  <path class="cls-1" d="M8.2,49.9"/>
  <path class="cls-2" d="M80.5,138c-11.5,2.6-19.2,11-20.8,22.4-1,7.5,2,15.7,7.8,21.5,3.2,3.1,6.2,4.9,10.9,6.4,3.2,1,3.6,1,10.9,1,6.9,0,7.8,0,10.4-.9,7.1-2.2,13.6-7.8,15.6-13.5,1.8-5,2.2-10.5.9-12.3-.9-1.3-1.5-1.4-1.5-.4s-2.3,5.9-3.7,7.5c-1.7,1.8-3.5,2.8-7.3,3.8-5.3,1.5-11.9,1.1-15.7-1-3.1-1.7-5.6-5.5-6.4-9.7-1.5-8.4,2.3-13.9,11-16.1,5.4-1.4,12.4-.7,18.3,1.9,5.3,2.3,9.5,5.2,18.3,12.4,9.8,8.2,8.9,7.2,9.6,9.9.3,1.3,1.2,3.7,1.8,5.2,1.2,2.7,1.2,2.8.4,2.5-.4-.1-3.3-.3-6.4-.4-4.7-.2-6.2,0-9.1.5-7.6,1.6-11.9,4.3-14.9,9.5-1.2,2-2.1,5.6-2.1,7.9s1.2,6.4,2.6,8.6c1.5,2.4,4.8,5.4,7.2,6.5l1.7.8-1.6,1.1c-3.7,2.5-7.1,7.1-8.3,11.1-.8,2.5-.6,5.3.5,7.5,1,2,4,5.2,6.1,6.3l1.6.9-3.6,1.3c-5.8,2.2-8.7,3.8-11.8,6.8-4.5,4.4-5.9,8.3-5,13.1.9,4.5,3.9,8.8,8,11.5,4.5,3,8.2,3.8,16.8,3.8,8.8,0,13.1-1,19.4-4.4,8.9-4.9,16.5-14.1,19.5-23.6,1-3.4,1.5-10.4.8-13.2-1.1-4.4-4.1-8.4-7.9-10.4-3.6-1.9-11.3-3.2-24-3.9-4.3-.3-6-.7-7.1-1.8-1-1-1-2.1.1-3.2.9-.9,1.1-.9,8.7-1.1,8.8-.2,11.9-.8,15.9-2.7,6.4-3.1,10-8.6,10-15.2s-2.2-9.9-7.2-13.8c-1.8-1.4-3.9-3.3-4.9-4.4-1.7-1.9-3.4-5.1-3.4-6.5,0-.7,0-.8,1.5-.4.8.2,3.4.3,5.7.2,6.9-.3,10.1-2.1,11.8-6.8.7-1.9.7-2.4.4-4.1-.8-3.8-3.9-6.3-8.3-6.6-5.9-.4-11.3,2.8-14,8.4l-.9,1.9-2.9-2.4c-1.6-1.3-4.5-3.6-6.4-5.2-1.9-1.6-5-4-6.9-5.5-4.1-3.3-13.5-9.1-17.4-10.8-1.6-.7-4.7-1.7-6.9-2.2-5.3-1.2-12.1-1.2-17.6,0M146.4,160.7c-1.4.3-2.1.9-2.9,2.5-1.3,2.6-1.2,2.8.4,3.7,1.9,1,4.3,1,5.8,0,1.3-.9,1.7-2.1,1.2-3.8-.7-2.2-2.1-2.9-4.5-2.4M130.6,181.7c-2.5,1.7-3.6,6.3-3.6,14.3,0,8.6,1.1,12.8,3.9,14.4,3.2,1.9,6.2.2,7.8-4.2.7-2,.8-2.9.8-9.9,0-9.1-.4-11.1-2.6-13.5-1.2-1.3-1.5-1.5-3.2-1.6-1.5-.1-2.1,0-3.1.7M185.6,192.7c-4.8.8-9.3,3.4-13.4,7.7-9.1,9.6-10.8,29.5-3.5,42.6,2.6,4.7,7.9,9.5,12.4,11.2,10.5,4.1,22.1-1.5,27.7-13.4,1.9-4,2.7-6.9,3.3-11.8,1-8.3-.4-16.4-4.2-23.3-2.1-3.8-3.5-5.5-6.4-8-4.7-4-10.7-5.9-15.9-5.1M73.4,193.3c-4.6,1.2-9.1,4.3-12.2,8.4-1,1.3-2,2.5-2.2,2.8-.2.3-1,1.8-1.7,3.5-3.7,8-4.2,20.1-1.3,29.4.4,1.4,2.6,6.1,3.1,6.8.2.2,1,1.3,1.9,2.4,2.8,3.6,6.8,6.7,10.9,8.2,3,1.1,10.1,1.4,13.2.5,7.4-2,12.7-7.8,15.4-16.8,1.5-4.9,1.3-7-.4-7-1.3,0-1.6.5-2.2,3.8-.6,3.7-1.7,6.5-3.8,9.7-1.8,2.7-4.9,5.6-6.8,6.3-3.4,1.3-8.8.9-11.1-.7-.6-.4-1.5-1.6-2-2.5-.8-1.6-.8-1.9-.7-12.5v-10.9c0,0,14.4,0,14.4,0h14.3v-1.9c0-5.2-2.1-12.5-5-17.7-2.7-4.8-7.8-9.3-12.6-11-3.2-1.2-8.2-1.5-11.3-.7M206.7,195.2c-.4.5-.2.9.5.9s.7.2.7,2,.2,2,.4,2,.4-.9.4-2c0-1.8,0-2,.7-2s.7-.2.7-.6-.4-.6-1.5-.6-1.6.1-1.8.2M210.6,195.5c-.1.3-.2,1.5-.2,2.6s.1,2,.5,2,.5-.4.6-1.2v-1.2s.4,1.2.4,1.2c.5,1.6,1.1,1.5,1.8-.2l.5-1.4v1.4c0,1,.2,1.4.6,1.4s.5-.4.3-2.1c-.4-3.6-.8-4-1.7-1.5l-.6,1.6-.4-1.1c-.6-1.9-1.4-2.6-1.8-1.4M76.5,196c-2.7.8-3,2.2-3,13.7v9.5h9.5l.2-.9c.1-.5.2-4.9,0-9.9-.2-11.2-.5-12.1-4.2-12.6-.9-.1-2,0-2.6.1M186.1,196.1c-.9.3-1.4.9-2,2.1l-.8,1.6v24.2c0,23.1,0,24.2.7,25.7.5,1.2,1,1.7,2,2.2,1.5.7,3.9.5,5.2-.4,1.7-1.2,1.8-2,1.8-27.3s0-26.5-1.7-27.6c-1.1-.7-3.7-1-5.1-.5M123.6,240.6c-8.5,2.2-11.2,14.8-4.4,21.1,1.9,1.8,4.7,3.3,7.3,3.9,11.6,2.8,23.6-1.5,27.5-9.8,1.2-2.6,1.6-6.4.7-8.1-2-4.1-7.4-6.3-17.5-7.1-5.3-.4-12-.5-13.6,0"/>
</svg>