<svg xmlns="http://www.w3.org/2000/svg" width="480" height="480" viewBox="0 0 480 480" version="1.1"><path d="" stroke="none" fill="#0474b4" fill-rule="evenodd"/><path d="M 90.952 37.490 C 58.375 44.478, 36.251 67.235, 31.926 98.202 C 29.077 118.599, 37.539 140.781, 54.140 156.433 C 63.100 164.881, 71.769 169.721, 85 173.662 C 94.142 176.385, 95.310 176.491, 116 176.496 C 135.594 176.500, 138.209 176.293, 145.500 174.162 C 165.560 168.301, 184.097 153.047, 189.852 137.666 C 194.909 124.149, 196.012 109.172, 192.314 104.219 C 189.736 100.766, 188 100.300, 188 103.062 C 188 106.663, 181.437 119.180, 177.375 123.325 C 172.480 128.319, 167.482 130.800, 156.553 133.659 C 141.369 137.631, 122.740 136.522, 112.060 131.009 C 103.199 126.435, 96.076 116.048, 93.991 104.658 C 89.825 81.896, 100.430 67.067, 125.317 60.856 C 140.685 57.021, 160.427 58.956, 177.204 65.942 C 192.365 72.255, 204.234 79.977, 229.077 99.693 C 257.014 121.863, 254.330 119.216, 256.234 126.475 C 257.179 130.079, 259.532 136.447, 261.463 140.627 C 264.830 147.914, 264.883 148.198, 262.737 147.531 C 261.507 147.149, 253.300 146.611, 244.500 146.335 C 231.120 145.916, 226.863 146.160, 218.500 147.825 C 196.926 152.121, 184.780 159.534, 176.104 173.699 C 172.726 179.215, 170 188.801, 170 195.166 C 170 201.843, 173.335 212.424, 177.340 218.456 C 181.607 224.883, 191.027 232.996, 197.866 236.133 L 202.767 238.381 198.134 241.427 C 187.732 248.262, 177.917 260.776, 174.543 271.502 C 172.368 278.418, 172.877 285.878, 175.933 291.870 C 178.702 297.297, 187.376 305.876, 193.220 308.968 L 197.885 311.436 187.589 315.059 C 170.969 320.907, 162.734 325.466, 154.076 333.610 C 141.401 345.534, 137.216 356.090, 139.948 369.247 C 142.458 381.342, 150.949 393.104, 162.551 400.561 C 175.218 408.702, 185.744 410.999, 210.387 411.003 C 235.361 411.006, 247.726 408.337, 265.387 399.133 C 290.752 385.913, 312.414 360.835, 320.784 335 C 323.740 325.874, 324.947 306.822, 323.047 299.266 C 320.043 287.316, 311.485 276.562, 300.613 271.076 C 290.285 265.864, 268.611 262.488, 232.500 260.468 C 220.140 259.776, 215.528 258.691, 212.250 255.703 C 209.288 253.002, 209.403 249.910, 212.578 246.924 C 215.103 244.550, 215.618 244.488, 237.328 243.918 C 262.315 243.262, 271.213 241.815, 282.500 236.569 C 300.780 228.072, 311 213.278, 311 195.312 C 311 180.030, 304.662 168.458, 290.556 157.984 C 285.575 154.286, 279.339 148.946, 276.698 146.117 C 271.762 140.831, 267.027 132.151, 267.010 128.356 C 267.001 126.346, 267.265 126.274, 271.250 127.194 C 273.587 127.733, 280.900 127.978, 287.500 127.738 C 307.026 127.027, 316.233 121.974, 320.977 109.365 C 322.960 104.095, 323.063 102.958, 321.997 98.148 C 319.698 87.776, 310.779 81.029, 298.290 80.213 C 281.570 79.121, 266.139 87.926, 258.559 102.883 L 255.916 108.100 247.708 101.716 C 243.194 98.205, 235 91.876, 229.500 87.651 C 224 83.427, 215.225 76.687, 210 72.674 C 198.283 63.674, 171.676 47.916, 160.516 43.366 C 155.948 41.503, 147.145 38.859, 140.954 37.490 C 125.842 34.147, 106.535 34.148, 90.952 37.490 M 278.256 99.070 C 274.147 99.925, 272.309 101.463, 270.055 105.933 C 266.448 113.087, 266.509 113.584, 271.282 115.894 C 276.792 118.562, 283.478 118.616, 287.723 116.027 C 291.543 113.698, 292.611 110.382, 291.057 105.674 C 289.121 99.807, 284.981 97.671, 278.256 99.070 M 233.206 156.083 C 226.227 160.679, 222.979 173.052, 223.035 194.838 C 223.094 218.135, 226.302 229.553, 234.004 233.882 C 243.022 238.950, 251.754 234.448, 256.240 222.418 C 258.255 217.017, 258.450 214.665, 258.474 195.500 C 258.504 170.926, 257.420 165.517, 251.104 158.746 C 247.741 155.140, 246.722 154.648, 241.911 154.303 C 237.602 153.993, 235.829 154.356, 233.206 156.083 M 389.500 185.960 C 375.794 188.093, 363.058 195.065, 351.353 206.844 C 325.361 233.001, 320.741 286.911, 341.444 322.465 C 348.842 335.169, 363.885 348.194, 376.693 352.986 C 406.487 364.134, 439.586 348.790, 455.321 316.535 C 460.656 305.599, 462.961 297.731, 464.705 284.500 C 467.684 261.893, 463.553 240.020, 452.778 221.359 C 446.760 210.938, 442.940 206.356, 434.694 199.676 C 421.418 188.920, 404.152 183.680, 389.500 185.960 M 70.800 187.495 C 57.862 190.755, 44.988 199.169, 36.044 210.210 C 33.242 213.669, 30.486 217.069, 29.921 217.765 C 29.356 218.460, 27.123 222.735, 24.959 227.265 C 14.568 249.010, 13.005 281.731, 21.148 307 C 22.358 310.753, 28.547 323.505, 30.065 325.371 C 30.571 325.992, 32.953 328.975, 35.359 332 C 43.194 341.850, 54.820 350.176, 66.324 354.175 C 74.887 357.152, 94.898 357.910, 103.919 355.599 C 124.817 350.245, 140.035 334.424, 147.780 310 C 151.963 296.808, 151.609 290.979, 146.628 291.015 C 142.880 291.042, 142.054 292.428, 140.511 301.274 C 138.761 311.311, 135.614 319.044, 129.836 327.500 C 124.820 334.841, 115.844 342.825, 110.485 344.713 C 100.720 348.151, 85.582 347.182, 78.812 342.684 C 76.990 341.474, 74.481 338.466, 73.235 336.001 C 71.015 331.605, 70.976 330.942, 71.235 302.009 L 71.500 272.500 112.250 272.239 L 153 271.978 153 267.158 C 153 253.151, 147.077 233.131, 138.831 219.262 C 131.088 206.241, 116.610 194.143, 102.977 189.303 C 93.825 186.053, 79.674 185.258, 70.800 187.495 M 449.667 192.667 C 448.399 193.934, 449.008 195, 451 195 C 452.758 195, 453 195.667, 453 200.500 C 453 203.525, 453.450 206, 454 206 C 454.550 206, 455 203.525, 455 200.500 C 455 195.667, 455.242 195, 457 195 C 458.111 195, 459 194.333, 459 193.500 C 459 192.397, 457.852 192, 454.667 192 C 452.283 192, 450.033 192.300, 449.667 192.667 M 460.607 193.582 C 460.273 194.452, 460 197.602, 460 200.582 C 460 204.731, 460.351 206, 461.500 206 C 462.505 206, 463.034 204.927, 463.102 202.750 L 463.204 199.500 464.247 202.750 C 465.621 207.035, 467.376 206.860, 469.267 202.250 L 470.806 198.500 470.903 202.250 C 470.971 204.883, 471.449 206, 472.509 206 C 473.747 206, 473.911 204.971, 473.425 200.250 C 472.411 190.400, 471.254 189.465, 468.478 196.250 L 466.740 200.500 465.736 197.500 C 463.970 192.225, 461.772 190.546, 460.607 193.582 M 79.419 195.037 C 71.832 197.333, 71 201.002, 71 232.149 L 71 258 84.481 258 L 97.962 258 98.584 255.522 C 98.926 254.159, 99.022 242.122, 98.797 228.772 C 98.284 198.312, 97.447 195.910, 86.897 194.636 C 84.479 194.344, 81.113 194.524, 79.419 195.037 M 391 195.268 C 388.412 196.179, 386.913 197.663, 385.250 200.962 L 383 205.424 383.022 270.962 C 383.043 333.733, 383.126 336.681, 384.990 340.788 C 386.435 343.971, 387.902 345.479, 390.688 346.643 C 395.091 348.483, 401.792 348.022, 405.446 345.627 C 410.358 342.409, 410.500 340.325, 410.500 271.500 C 410.500 203.105, 410.264 199.494, 405.599 196.502 C 402.467 194.493, 394.994 193.861, 391 195.268 M 213.500 315.938 C 189.321 321.851, 181.794 356.043, 200.892 373.213 C 206.395 378.161, 214.286 382.243, 221.500 383.874 C 254.548 391.346, 288.645 379.776, 299.607 357.370 C 303.108 350.215, 304.070 339.970, 301.676 335.341 C 295.944 324.257, 280.672 318.324, 252.050 316.063 C 237.059 314.878, 218.085 314.817, 213.500 315.938" stroke="none" fill="#0474bc" fill-rule="evenodd"/></svg>